<svg width="21" height="21" viewBox="0 0 21 21" fill="none" xmlns="http://www.w3.org/2000/svg">
<path d="M15.6009 0.602947C15.1375 0.5999 14.6833 0.76446 14.3327 1.11491L13.5524 1.91943L18.698 7.08786L19.4784 6.28334C20.1825 5.57938 20.1886 4.4366 19.4784 3.72351L16.8934 1.13929C16.5367 0.782745 16.0642 0.605994 15.6009 0.602947ZM12.6744 2.62643L11.4551 3.79664L16.8202 9.1601L18.0639 8.01427L12.6744 2.62643ZM10.6747 4.64992L2.23687 13.012C2.04178 13.1126 1.90155 13.2894 1.84668 13.4996L0.0420579 19.6189C-0.0402477 19.887 0.0329126 20.1826 0.231056 20.3807C0.429199 20.5788 0.72489 20.6519 0.993145 20.5696L7.11424 18.7656C7.39774 18.7229 7.63246 18.5248 7.72391 18.2536L16.0398 10.0134L14.8936 8.86755L6.35825 17.4247L2.91971 18.4243L2.1881 17.6929L3.23673 14.1091L11.699 5.67385L10.6747 4.64992ZM12.5281 6.52713L3.96834 15.1087L5.21207 15.3768L5.38278 16.5227L13.9669 7.96552L12.5281 6.52713Z" fill="#8D8D8D"/>
</svg>
