<svg width="22" height="12" viewBox="0 0 22 12" fill="none" xmlns="http://www.w3.org/2000/svg">
<path d="M10.651 1.00564C10.6479 1.00961 10.5291 1.01888 10.3868 1.02683C8.4534 1.13677 6.55748 1.69704 4.68187 2.71295C3.10167 3.56859 1.55742 4.81497 1.13384 5.57392C0.974413 5.86134 0.960346 6.01896 1.07601 6.21896C1.23231 6.48652 2.17793 7.35275 2.94693 7.9329C5.3227 9.72365 7.88603 10.7793 10.2774 10.9541C10.4275 10.9647 10.6244 10.9793 10.7151 10.9872C10.9292 11.0045 11.0746 11.0045 11.1621 10.9859C11.2105 10.9753 11.2496 10.9753 11.2965 10.9846C11.3622 10.9992 11.4372 10.9952 11.9967 10.9528C14.4116 10.77 16.928 9.68259 19.2553 7.81501C19.9618 7.24812 20.7355 6.49844 20.9325 6.18717C21.0262 6.04015 21.0231 5.95538 20.9184 5.73551C20.7918 5.47193 20.3995 5.05868 19.7665 4.52225C18.266 3.25335 16.3904 2.20566 14.5444 1.6083C13.5832 1.29836 12.5641 1.09703 11.6529 1.04007C11.5278 1.03213 11.3622 1.02021 11.2824 1.01358C11.1402 1.00034 10.6635 0.995041 10.651 1.00564ZM11.5825 1.92751C13.269 2.04936 15.0477 2.62288 16.7749 3.60038C17.8299 4.19774 18.8005 4.90503 19.532 5.60968C19.6742 5.74611 19.843 5.93022 19.843 5.94876C19.843 5.98187 19.3929 6.42029 19.0287 6.74215C17.2375 8.32231 15.1493 9.44153 13.1831 9.87332C11.4122 10.2641 9.62879 10.1475 7.79225 9.51967C6.19642 8.9753 4.53963 8.02429 3.09229 6.82294C2.66246 6.46665 2.11853 5.95936 2.11853 5.91432C2.11853 5.88518 2.27484 5.69048 2.43895 5.51696C3.12667 4.79113 4.33332 3.93283 5.53371 3.31561C7.37493 2.3699 9.28492 1.88115 11.0355 1.90896C11.234 1.91161 11.4794 1.92088 11.5825 1.92751Z" fill="black"/>
<path d="M10.8482 3.16723C10.8232 3.16988 10.7388 3.17915 10.6607 3.1871C10.1355 3.24141 9.56501 3.43876 9.11643 3.71956C8.95231 3.82155 8.66472 4.05996 8.52718 4.20566C8.163 4.59242 7.94261 5.02422 7.86446 5.50237C7.83164 5.69707 7.83164 6.07854 7.86446 6.27324C7.95824 6.84676 8.26615 7.3726 8.746 7.7832C9.23209 8.19777 9.88699 8.48122 10.5919 8.58321C10.831 8.61765 11.2327 8.62427 11.4813 8.59646C12.1018 8.53023 12.6879 8.32228 13.1756 7.99645C13.5116 7.77393 13.9039 7.3673 13.9899 7.15273C14.0086 7.10769 14.018 7.03749 14.0211 6.93418C14.0243 6.79378 14.029 6.76994 14.0884 6.62954C14.3041 6.109 14.3025 5.52489 14.0821 4.98316C13.807 4.30897 13.2287 3.76062 12.4644 3.45068C12.1112 3.30896 11.6657 3.20962 11.2671 3.18578C11.1483 3.17915 11.017 3.17121 10.9733 3.16723C10.9311 3.16459 10.8748 3.16459 10.8482 3.16723Z" fill="black"/>
<line x1="0.232003" y1="0.557084" x2="21.232" y2="11.5571" stroke="black"/>
</svg>
