<svg width="60" height="45" viewBox="0 0 60 45" fill="none" xmlns="http://www.w3.org/2000/svg">
<path d="M1.87477 37.8653H24.3749C25.4114 37.8653 26.2503 37.2867 26.2503 36.5743V33.9922C26.2503 33.2798 25.4114 32.7018 24.3749 32.7018H1.87477C0.838522 32.7018 0 33.2797 0 33.9922V36.5743C0 37.2867 0.838522 37.8653 1.87477 37.8653ZM1.87477 44.75H24.3749C25.4114 44.75 26.2503 44.1716 26.2503 43.459V40.8769C26.2503 40.1644 25.4114 39.5864 24.3749 39.5864H1.87477C0.838522 39.5864 0 40.1644 0 40.8769V43.459C0 44.1716 0.838522 44.75 1.87477 44.75ZM1.87477 30.9799H24.3749C25.4114 30.9799 26.2503 30.4021 26.2503 29.6896V27.1086C26.2503 26.3955 25.4114 25.8169 24.3749 25.8169H1.87477C0.838522 25.8168 0 26.3954 0 27.1084V29.6894C0 30.4021 0.838522 30.9799 1.87477 30.9799ZM29.9178 30.2949C29.9469 30.0931 30.0001 29.8981 30.0001 29.6894V27.1084C30.0001 24.4523 27.5296 22.3747 24.3749 22.3747H16.8749C16.8749 17.6215 21.072 13.7693 26.2503 13.7693C31.4284 13.7693 35.6252 17.6215 35.6252 22.3747C35.6254 25.9313 33.2723 28.9833 29.9178 30.2949ZM0 6.88452H52.5003V37.8653H29.7767C29.9104 37.4553 30.0001 37.0246 30.0001 36.5743V34.4229H41.2503C41.2503 30.6208 44.6086 27.5382 48.75 27.5382V17.2115C44.6086 17.2115 41.2503 14.1288 41.2503 10.3269H11.2501C11.2501 14.1289 7.89219 17.2115 3.75016 17.2115V22.3747H1.87477C1.21011 22.3747 0.587744 22.4857 0 22.6537V6.88452ZM60 0V34.4229H56.2505V3.44232H3.75016V0H60Z" fill="black"/>
</svg>
