<svg width="21" height="10" viewBox="0 0 21 10" fill="none" xmlns="http://www.w3.org/2000/svg">
<path d="M9.71886 0.00563716C9.71574 0.00961073 9.59695 0.0188824 9.45471 0.0268295C7.52127 0.136765 5.62535 0.697038 3.74974 1.71295C2.16954 2.56859 0.625286 3.81497 0.201711 4.57392C0.0422846 4.86134 0.0282175 5.01896 0.14388 5.21896C0.300181 5.48652 1.2458 6.35275 2.0148 6.9329C4.39057 8.72365 6.9539 9.7793 9.3453 9.95413C9.49535 9.96473 9.69229 9.9793 9.78295 9.98725C9.99708 10.0045 10.1424 10.0045 10.23 9.98592C10.2784 9.97533 10.3175 9.97533 10.3644 9.9846C10.43 9.99917 10.5051 9.99519 11.0646 9.95281C13.4795 9.77002 15.9959 8.68259 18.3232 6.81501C19.0297 6.24812 19.8034 5.49844 20.0003 5.18717C20.0941 5.04015 20.091 4.95538 19.9863 4.73551C19.8597 4.47193 19.4673 4.05868 18.8343 3.52225C17.3338 2.25335 15.4582 1.20566 13.6123 0.608295C12.6511 0.298357 11.632 0.0970293 10.7208 0.0400748C10.5957 0.0321276 10.43 0.0202069 10.3503 0.0135843C10.2081 0.000339068 9.73137 -0.00495903 9.71886 0.00563716ZM10.6504 0.927506C12.3369 1.04936 14.1156 1.62288 15.8427 2.60038C16.8978 3.19774 17.8684 3.90503 18.5999 4.60968C18.7421 4.74611 18.9109 4.93022 18.9109 4.94876C18.9109 4.98187 18.4608 5.42029 18.0966 5.74215C16.3054 7.32231 14.2172 8.44153 12.2509 8.87332C10.48 9.26406 8.69666 9.1475 6.86012 8.51967C5.26429 7.9753 3.6075 7.02429 2.16016 5.82294C1.73033 5.46665 1.18641 4.95936 1.18641 4.91432C1.18641 4.88518 1.34271 4.69048 1.50682 4.51696C2.19455 3.79113 3.40119 2.93283 4.60158 2.31561C6.4428 1.3699 8.35279 0.881147 10.1034 0.908962C10.3019 0.911611 10.5473 0.920883 10.6504 0.927506Z" fill="black"/>
<path d="M9.91611 2.16723C9.89111 2.16988 9.8067 2.17915 9.72855 2.1871C9.20338 2.24141 8.63288 2.43876 8.1843 2.71956C8.02019 2.82155 7.73259 3.05996 7.59505 3.20566C7.23087 3.59242 7.01048 4.02422 6.93233 4.50237C6.89951 4.69707 6.89951 5.07854 6.93233 5.27324C7.02611 5.84676 7.33403 6.3726 7.81387 6.7832C8.29996 7.19777 8.95486 7.48122 9.65978 7.58321C9.89892 7.61765 10.3006 7.62427 10.5491 7.59646C11.1696 7.53023 11.7558 7.32228 12.2434 6.99645C12.5795 6.77393 12.9718 6.3673 13.0578 6.15273C13.0765 6.10769 13.0859 6.03749 13.089 5.93418C13.0921 5.79378 13.0968 5.76994 13.1562 5.62954C13.3719 5.109 13.3704 4.52489 13.15 3.98316C12.8749 3.30897 12.2966 2.76062 11.5323 2.45068C11.179 2.30896 10.7336 2.20962 10.335 2.18578C10.2162 2.17915 10.0849 2.17121 10.0412 2.16723C9.99895 2.16459 9.94268 2.16459 9.91611 2.16723Z" fill="black"/>
</svg>
